<?xml version="1.0" standalone="no"?>
<!DOCTYPE svg PUBLIC "-//W3C//DTD SVG 20010904//EN"
 "http://www.w3.org/TR/2001/REC-SVG-20010904/DTD/svg10.dtd">
<svg version="1.0" xmlns="http://www.w3.org/2000/svg"
 width="1600.000000pt" height="1600.000000pt" viewBox="0 0 1600.000000 1600.000000"
 preserveAspectRatio="xMidYMid meet">

<g transform="translate(0.000000,1600.000000) scale(0.100000,-0.100000)"
fill="#000000" stroke="none">
<path d="M1675 15929 c-111 -11 -944 -164 -1030 -190 -298 -89 -532 -335 -617
-647 -17 -61 -21 -107 -21 -217 l-1 -140 392 -2065 c215 -1136 401 -2096 413
-2135 70 -233 237 -428 464 -540 160 -79 208 -90 400 -89 158 0 166 1 605 83
461 85 577 115 687 177 310 173 491 514 461 871 -6 81 -760 4093 -793 4228
-20 78 -85 213 -139 289 -51 70 -160 178 -229 225 -111 76 -275 136 -397 146
-36 3 -76 7 -90 9 -14 1 -61 -1 -105 -5z"/>
<path d="M14057 15914 c-318 -70 -584 -314 -676 -619 -12 -39 -197 -999 -413
-2135 l-391 -2065 0 -140 c0 -113 4 -155 21 -220 85 -308 316 -551 613 -643
36 -11 265 -58 510 -103 438 -82 446 -83 604 -83 189 -1 239 10 392 84 234
114 407 316 477 560 9 30 192 984 408 2120 l391 2065 0 140 c0 112 -4 156 -22
220 -84 310 -317 554 -616 644 -39 12 -268 58 -510 103 -392 72 -455 81 -580
84 -99 3 -160 -1 -208 -12z"/>
<path d="M10978 14380 c-126 -22 -251 -119 -311 -243 -34 -71 -49 -129 -63
-236 l-6 -54 -72 7 c-39 3 -168 10 -286 16 -118 5 -255 12 -305 15 -277 17
-997 36 -1610 41 -944 9 -1797 -12 -2846 -69 l-66 -4 -22 96 c-68 296 -213
415 -484 398 -278 -17 -395 -140 -428 -448 -7 -63 -13 -115 -14 -116 -1 -2
-197 -23 -435 -48 -239 -25 -436 -47 -438 -49 -5 -6 109 -610 118 -619 4 -5
162 7 351 27 189 20 363 37 387 40 34 3 42 0 42 -13 0 -42 32 -557 45 -731
111 -1441 336 -2589 672 -3440 189 -478 396 -839 690 -1205 253 -315 248 -308
288 -480 67 -295 125 -536 251 -1038 l134 -538 -1163 -1177 c-639 -647 -1646
-1666 -2236 -2265 -591 -598 -1078 -1087 -1081 -1087 -19 0 -154 -139 -193
-198 -92 -139 -125 -274 -107 -434 26 -230 123 -382 296 -465 199 -95 484 -75
676 49 33 21 1296 1043 2806 2271 1511 1228 2752 2236 2758 2240 10 5 2782
-508 2791 -516 1 -2 -68 -714 -153 -1582 -151 -1539 -155 -1584 -150 -1755 9
-310 78 -514 219 -647 104 -98 205 -129 391 -118 350 19 500 154 640 575 43
127 54 193 210 1150 279 1710 420 2592 477 2985 63 438 6 594 -269 729 -107
53 -886 344 -2092 782 -239 86 -438 160 -443 164 -4 4 11 105 33 226 72 395
136 829 155 1058 7 77 11 87 184 435 326 656 485 1062 660 1686 242 864 438
2080 533 3305 l3 35 60 -4 c33 -1 209 -20 390 -41 182 -20 331 -37 331 -36 8
6 116 618 110 623 -7 8 -462 63 -681 83 -181 16 -162 2 -162 127 -1 130 -23
211 -84 302 -67 100 -168 162 -308 187 -84 15 -123 16 -193 4z m-1518 -1114
c604 -24 1034 -48 1045 -57 6 -6 -8 -139 -39 -372 -182 -1369 -345 -2186 -557
-2803 -344 -999 -825 -1529 -1519 -1674 -201 -41 -461 -49 -650 -19 -478 76
-855 345 -1175 839 -374 575 -639 1453 -884 2925 -41 245 -171 1077 -171 1093
0 5 21 12 47 16 115 16 871 50 1464 66 450 12 1997 3 2439 -14z"/>
<path d="M7836 11509 c-483 -67 -895 -404 -1046 -857 -50 -152 -64 -242 -64
-412 0 -171 14 -260 65 -415 121 -362 433 -673 797 -795 152 -50 242 -64 412
-64 274 0 482 62 710 212 277 183 475 480 547 822 24 117 24 363 0 480 -57
271 -178 492 -371 678 -182 175 -391 286 -641 337 -96 20 -314 28 -409 14z"/>
</g>
</svg>
